STARTFONT 2.1
FONT -Adobe-Helvetica-Bold-O-Normal--10-100-75-75-P-60-iso10646-0400
SIZE 10 75 75
FONTBOUNDINGBOX 13 13 -2 -2
COMMENT $XConsortium: helvBO10.bdf,v 1.13 95/01/26 18:01:59 gildea Exp $
COMMENT 
COMMENT +
COMMENT  Copyright 1984-1989, 1994 Adobe Systems Incorporated.
COMMENT  Copyright 1988, 1994 Digital Equipment Corporation.
COMMENT
COMMENT  Adobe is a trademark of Adobe Systems Incorporated which may be
COMMENT  registered in certain jurisdictions.
COMMENT  Permission to use these trademarks is hereby granted only in
COMMENT  association with the images described in this file.
COMMENT
COMMENT  Permission to use, copy, modify, distribute and sell this software
COMMENT  and its documentation for any purpose and without fee is hereby
COMMENT  granted, provided that the above copyright notices appear in all
COMMENT  copies and that both those copyright notices and this permission
COMMENT  notice appear in supporting documentation, and that the names of
COMMENT  Adobe Systems and Digital Equipment Corporation not be used in
COMMENT  advertising or publicity pertaining to distribution of the software
COMMENT  without specific, written prior permission.  Adobe Systems and
COMMENT  Digital Equipment Corporation make no representations about the
COMMENT  suitability of this software for any purpose.  It is provided "as
COMMENT  is" without express or implied warranty.
COMMENT -
STARTPROPERTIES 32
FOUNDRY "Adobe"
FAMILY_NAME "Helvetica"
WEIGHT_NAME "Bold"
SLANT "O"
SETWIDTH_NAME "Normal"
ADD_STYLE_NAME ""
PIXEL_SIZE 10
POINT_SIZE 100
RESOLUTION_X 75
RESOLUTION_Y 75
SPACING "P"
AVERAGE_WIDTH 60
CHARSET_REGISTRY "iso10646"
CHARSET_ENCODING "0400"
CAP_HEIGHT 8
X_HEIGHT 6
FONT_ASCENT 10
FONT_DESCENT 2
FACE_NAME "Helvetica Bold Oblique"
COPYRIGHT "Copyright (c) 1984, 1987 Adobe Systems Incorporated. All Rights Reserved. Copyright (c) 1988, 1991 Digital Equipment Corporation. All Rights Reserved."

STARTCHAR space
ENCODING 32
SWIDTH 278 0
DWIDTH 3 0
BBX 0 0 0 0
BITMAP
ENDCHAR
STARTCHAR exclam
ENCODING 33
SWIDTH 333 0
DWIDTH 4 0
BBX 4 8 1 0
BITMAP
30
30
60
60
40
40
00
C0
ENDCHAR
STARTCHAR quotedbl
ENCODING 34
SWIDTH 474 0
DWIDTH 6 0
BBX 6 3 1 5
BITMAP
6C
48
90
ENDCHAR
STARTCHAR numbersign
ENCODING 35
SWIDTH 556 0
DWIDTH 7 0
BBX 7 7 0 0
BITMAP
14
14
7E
28
FC
50
50
ENDCHAR
STARTCHAR dollar
ENCODING 36
SWIDTH 556 0
DWIDTH 6 0
BBX 6 9 0 -1
BITMAP
08
38
7C
50
78
28
F8
70
40
ENDCHAR
STARTCHAR percent
ENCODING 37
SWIDTH 889 0
DWIDTH 9 0
BBX 8 8 1 0
BITMAP
61
D2
64
08
10
2C
5A
8C
ENDCHAR
STARTCHAR ampersand
ENCODING 38
SWIDTH 722 0
DWIDTH 8 0
BBX 7 8 0 0
BITMAP
1C
34
2C
38
7A
CE
DC
76
ENDCHAR
STARTCHAR quotesingle
ENCODING 39
SWIDTH 238 0
DWIDTH 3 0
BBX 3 3 2 5
BITMAP
60
40
80
ENDCHAR
STARTCHAR parenleft
ENCODING 40
SWIDTH 333 0
DWIDTH 5 0
BBX 5 10 0 -2
BITMAP
18
30
60
60
C0
C0
C0
60
60
30
ENDCHAR
STARTCHAR parenright
ENCODING 41
SWIDTH 333 0
DWIDTH 5 0
BBX 5 10 0 -2
BITMAP
60
30
30
18
18
18
30
30
60
C0
ENDCHAR
STARTCHAR asterisk
ENCODING 42
SWIDTH 389 0
DWIDTH 6 0
BBX 4 4 2 4
BITMAP
20
F0
60
A0
ENDCHAR
STARTCHAR plus
ENCODING 43
SWIDTH 584 0
DWIDTH 6 0
BBX 5 5 1 1
BITMAP
30
30
F8
60
60
ENDCHAR
STARTCHAR comma
ENCODING 44
SWIDTH 278 0
DWIDTH 3 0
BBX 2 4 0 -2
BITMAP
40
40
40
80
ENDCHAR
STARTCHAR minus
ENCODING 45
SWIDTH 584 0
DWIDTH 7 0
BBX 5 1 1 3
BITMAP
F8
ENDCHAR
STARTCHAR period
ENCODING 46
SWIDTH 278 0
DWIDTH 3 0
BBX 1 2 1 0
BITMAP
80
80
ENDCHAR
STARTCHAR slash
ENCODING 47
SWIDTH 278 0
DWIDTH 5 0
BBX 6 8 0 0
BITMAP
0C
18
10
30
20
60
40
C0
ENDCHAR
STARTCHAR zero
ENCODING 48
SWIDTH 556 0
DWIDTH 6 0
BBX 6 8 0 0
BITMAP
38
6C
4C
CC
CC
C8
D8
70
ENDCHAR
STARTCHAR one
ENCODING 49
SWIDTH 556 0
DWIDTH 6 0
BBX 4 8 2 0
BITMAP
30
F0
60
60
60
C0
C0
C0
ENDCHAR
STARTCHAR two
ENCODING 50
SWIDTH 556 0
DWIDTH 6 0
BBX 6 8 0 0
BITMAP
38
6C
0C
38
60
C0
C0
F8
ENDCHAR
STARTCHAR three
ENCODING 51
SWIDTH 556 0
DWIDTH 6 0
BBX 6 8 0 0
BITMAP
38
6C
0C
30
18
18
D8
70
ENDCHAR
STARTCHAR four
ENCODING 52
SWIDTH 556 0
DWIDTH 6 0
BBX 6 8 0 0
BITMAP
0C
1C
28
58
98
F8
30
30
ENDCHAR
STARTCHAR five
ENCODING 53
SWIDTH 556 0
DWIDTH 6 0
BBX 6 8 0 0
BITMAP
3C
20
60
70
18
18
D8
70
ENDCHAR
STARTCHAR six
ENCODING 54
SWIDTH 556 0
DWIDTH 6 0
BBX 6 8 0 0
BITMAP
38
6C
60
F8
D8
D8
D8
70
ENDCHAR
STARTCHAR seven
ENCODING 55
SWIDTH 556 0
DWIDTH 6 0
BBX 5 8 1 0
BITMAP
F8
18
30
30
60
60
C0
C0
ENDCHAR
STARTCHAR eight
ENCODING 56
SWIDTH 556 0
DWIDTH 6 0
BBX 6 8 0 0
BITMAP
38
6C
6C
78
D8
D8
D8
70
ENDCHAR
STARTCHAR nine
ENCODING 57
SWIDTH 556 0
DWIDTH 6 0
BBX 6 8 0 0
BITMAP
38
6C
6C
6C
3C
0C
D8
70
ENDCHAR
STARTCHAR colon
ENCODING 58
SWIDTH 333 0
DWIDTH 3 0
BBX 2 6 1 0
BITMAP
40
40
00
00
80
80
ENDCHAR
STARTCHAR semicolon
ENCODING 59
SWIDTH 333 0
DWIDTH 3 0
BBX 3 8 0 -2
BITMAP
20
20
00
00
40
40
40
80
ENDCHAR
STARTCHAR less
ENCODING 60
SWIDTH 584 0
DWIDTH 6 0
BBX 5 5 1 1
BITMAP
18
70
C0
60
30
ENDCHAR
STARTCHAR equal
ENCODING 61
SWIDTH 584 0
DWIDTH 6 0
BBX 5 3 1 2
BITMAP
78
00
F0
ENDCHAR
STARTCHAR greater
ENCODING 62
SWIDTH 584 0
DWIDTH 7 0
BBX 5 5 1 1
BITMAP
60
30
18
70
C0
ENDCHAR
STARTCHAR question
ENCODING 63
SWIDTH 611 0
DWIDTH 6 0
BBX 6 8 1 0
BITMAP
38
6C
0C
38
60
60
00
C0
ENDCHAR
STARTCHAR at
ENCODING 64
SWIDTH 975 0
DWIDTH 10 0
BBX 9 9 0 -2
BITMAP
1E00
6100
4E80
9480
A480
AD00
B600
4000
3C00
ENDCHAR
STARTCHAR A
ENCODING 65
SWIDTH 722 0
DWIDTH 8 0
BBX 7 8 0 0
BITMAP
0C
1C
36
36
66
7E
C6
C6
ENDCHAR
STARTCHAR B
ENCODING 66
SWIDTH 722 0
DWIDTH 7 0
BBX 7 8 0 0
BITMAP
3E
32
66
7C
66
C6
CC
F8
ENDCHAR
STARTCHAR C
ENCODING 67
SWIDTH 722 0
DWIDTH 7 0
BBX 7 8 0 0
BITMAP
1C
36
66
60
C0
C4
CC
78
ENDCHAR
STARTCHAR D
ENCODING 68
SWIDTH 722 0
DWIDTH 8 0
BBX 8 8 0 0
BITMAP
3E
33
63
63
66
C6
CC
F8
ENDCHAR
STARTCHAR E
ENCODING 69
SWIDTH 667 0
DWIDTH 6 0
BBX 7 8 0 0
BITMAP
3E
30
60
7C
60
C0
C0
F8
ENDCHAR
STARTCHAR F
ENCODING 70
SWIDTH 611 0
DWIDTH 5 0
BBX 7 8 0 0
BITMAP
3E
30
60
78
60
C0
C0
C0
ENDCHAR
STARTCHAR G
ENCODING 71
SWIDTH 778 0
DWIDTH 8 0
BBX 8 8 0 0
BITMAP
1E
33
60
60
CF
C6
CC
7C
ENDCHAR
STARTCHAR H
ENCODING 72
SWIDTH 722 0
DWIDTH 7 0
BBX 8 8 0 0
BITMAP
33
33
66
7E
66
CC
CC
CC
ENDCHAR
STARTCHAR I
ENCODING 73
SWIDTH 278 0
DWIDTH 3 0
BBX 4 8 0 0
BITMAP
30
30
60
60
60
C0
C0
C0
ENDCHAR
STARTCHAR J
ENCODING 74
SWIDTH 556 0
DWIDTH 6 0
BBX 7 8 0 0
BITMAP
06
06
0C
0C
0C
D8
D8
70
ENDCHAR
STARTCHAR K
ENCODING 75
SWIDTH 722 0
DWIDTH 8 0
BBX 8 8 0 0
BITMAP
33
36
6C
78
78
CC
C6
C6
ENDCHAR
STARTCHAR L
ENCODING 76
SWIDTH 611 0
DWIDTH 6 0
BBX 5 8 0 0
BITMAP
30
30
60
60
60
C0
C0
F8
ENDCHAR
STARTCHAR M
ENCODING 77
SWIDTH 833 0
DWIDTH 10 0
BBX 11 8 0 0
BITMAP
3060
30E0
79C0
6BC0
6EC0
CD80
CD80
C980
ENDCHAR
STARTCHAR N
ENCODING 78
SWIDTH 722 0
DWIDTH 8 0
BBX 9 8 0 0
BITMAP
3180
3180
7300
7B00
6B00
CE00
C600
C600
ENDCHAR
STARTCHAR O
ENCODING 79
SWIDTH 778 0
DWIDTH 8 0
BBX 8 8 0 0
BITMAP
1E
33
63
63
C6
C6
CC
78
ENDCHAR
STARTCHAR P
ENCODING 80
SWIDTH 667 0
DWIDTH 7 0
BBX 8 8 0 0
BITMAP
3E
33
63
66
7C
C0
C0
C0
ENDCHAR
STARTCHAR Q
ENCODING 81
SWIDTH 778 0
DWIDTH 8 0
BBX 8 8 0 0
BITMAP
1E
33
63
63
C6
C6
CC
7F
ENDCHAR
STARTCHAR R
ENCODING 82
SWIDTH 722 0
DWIDTH 8 0
BBX 8 8 0 0
BITMAP
3E
33
63
7C
66
C6
CC
CC
ENDCHAR
STARTCHAR S
ENCODING 83
SWIDTH 667 0
DWIDTH 7 0
BBX 8 8 0 0
BITMAP
1E
33
30
38
1C
CC
CC
78
ENDCHAR
STARTCHAR T
ENCODING 84
SWIDTH 611 0
DWIDTH 6 0
BBX 6 8 1 0
BITMAP
FC
30
60
60
60
C0
C0
C0
ENDCHAR
STARTCHAR U
ENCODING 85
SWIDTH 722 0
DWIDTH 7 0
BBX 8 8 0 0
BITMAP
33
33
66
66
66
CC
CC
78
ENDCHAR
STARTCHAR V
ENCODING 86
SWIDTH 667 0
DWIDTH 8 0
BBX 7 8 2 0
BITMAP
C6
C6
CC
CC
D8
D8
70
60
ENDCHAR
STARTCHAR W
ENCODING 87
SWIDTH 944 0
DWIDTH 10 0
BBX 10 8 1 0
BITMAP
CCC0
CCC0
CD80
D580
D500
7700
6600
6600
ENDCHAR
STARTCHAR X
ENCODING 88
SWIDTH 667 0
DWIDTH 7 0
BBX 8 8 0 0
BITMAP
63
66
2C
38
38
6C
CC
CC
ENDCHAR
STARTCHAR Y
ENCODING 89
SWIDTH 667 0
DWIDTH 7 0
BBX 8 8 1 0
BITMAP
C3
C6
6C
78
30
30
60
60
ENDCHAR
STARTCHAR Z
ENCODING 90
SWIDTH 611 0
DWIDTH 7 0
BBX 8 8 0 0
BITMAP
3F
03
06
1C
38
60
C0
FC
ENDCHAR
STARTCHAR bracketleft
ENCODING 91
SWIDTH 333 0
DWIDTH 4 0
BBX 6 10 -1 -2
BITMAP
1C
18
30
30
30
60
60
60
C0
E0
ENDCHAR
STARTCHAR backslash
ENCODING 92
SWIDTH 278 0
DWIDTH 5 0
BBX 2 8 2 0
BITMAP
80
80
80
80
40
40
40
40
ENDCHAR
STARTCHAR bracketright
ENCODING 93
SWIDTH 333 0
DWIDTH 4 0
BBX 6 10 -1 -2
BITMAP
1C
0C
18
18
18
30
30
30
60
E0
ENDCHAR
STARTCHAR asciicircum
ENCODING 94
SWIDTH 584 0
DWIDTH 6 0
BBX 5 4 1 4
BITMAP
18
38
68
C8
ENDCHAR
STARTCHAR underscore
ENCODING 95
SWIDTH 556 0
DWIDTH 6 0
BBX 6 1 -1 -2
BITMAP
FC
ENDCHAR
STARTCHAR grave
ENCODING 96
SWIDTH 333 0
DWIDTH 3 0
BBX 2 2 2 6
BITMAP
80
40
ENDCHAR
STARTCHAR a
ENCODING 97
SWIDTH 556 0
DWIDTH 6 0
BBX 6 6 0 0
BITMAP
38
4C
3C
D8
D8
6C
ENDCHAR
STARTCHAR b
ENCODING 98
SWIDTH 611 0
DWIDTH 6 0
BBX 6 8 0 0
BITMAP
30
30
78
6C
4C
C8
D8
F0
ENDCHAR
STARTCHAR c
ENCODING 99
SWIDTH 556 0
DWIDTH 5 0
BBX 5 6 0 0
BITMAP
38
68
C0
C0
D8
70
ENDCHAR
STARTCHAR d
ENCODING 100
SWIDTH 611 0
DWIDTH 6 0
BBX 7 8 0 0
BITMAP
06
06
3C
6C
4C
C8
D8
78
ENDCHAR
STARTCHAR e
ENCODING 101
SWIDTH 556 0
DWIDTH 6 0
BBX 6 6 0 0
BITMAP
38
6C
7C
C0
D8
70
ENDCHAR
STARTCHAR f
ENCODING 102
SWIDTH 333 0
DWIDTH 3 0
BBX 5 8 0 0
BITMAP
38
60
F0
60
60
C0
C0
C0
ENDCHAR
STARTCHAR g
ENCODING 103
SWIDTH 611 0
DWIDTH 6 0
BBX 6 8 0 -2
BITMAP
3C
6C
4C
C8
D8
78
30
E0
ENDCHAR
STARTCHAR h
ENCODING 104
SWIDTH 611 0
DWIDTH 6 0
BBX 6 8 0 0
BITMAP
30
30
78
6C
4C
D8
D8
D8
ENDCHAR
STARTCHAR i
ENCODING 105
SWIDTH 278 0
DWIDTH 3 0
BBX 4 8 0 0
BITMAP
30
00
60
60
60
C0
C0
C0
ENDCHAR
STARTCHAR j
ENCODING 106
SWIDTH 278 0
DWIDTH 3 0
BBX 5 10 -1 -2
BITMAP
18
00
30
30
30
60
60
60
60
C0
ENDCHAR
STARTCHAR k
ENCODING 107
SWIDTH 556 0
DWIDTH 6 0
BBX 6 8 0 0
BITMAP
30
30
6C
78
70
D8
D8
CC
ENDCHAR
STARTCHAR l
ENCODING 108
SWIDTH 278 0
DWIDTH 3 0
BBX 4 8 0 0
BITMAP
30
30
60
60
60
C0
C0
C0
ENDCHAR
STARTCHAR m
ENCODING 109
SWIDTH 889 0
DWIDTH 9 0
BBX 9 6 0 0
BITMAP
5B00
6D80
6D80
DB00
DB00
DB00
ENDCHAR
STARTCHAR n
ENCODING 110
SWIDTH 611 0
DWIDTH 6 0
BBX 6 6 0 0
BITMAP
78
6C
4C
D8
D8
D8
ENDCHAR
STARTCHAR o
ENCODING 111
SWIDTH 611 0
DWIDTH 6 0
BBX 6 6 0 0
BITMAP
38
6C
CC
CC
D8
70
ENDCHAR
STARTCHAR p
ENCODING 112
SWIDTH 611 0
DWIDTH 6 0
BBX 7 8 -1 -2
BITMAP
3C
36
26
64
6C
78
C0
C0
ENDCHAR
STARTCHAR q
ENCODING 113
SWIDTH 611 0
DWIDTH 6 0
BBX 6 8 0 -2
BITMAP
3C
6C
4C
C8
D8
78
30
30
ENDCHAR
STARTCHAR r
ENCODING 114
SWIDTH 389 0
DWIDTH 4 0
BBX 5 6 0 0
BITMAP
58
70
60
C0
C0
C0
ENDCHAR
STARTCHAR s
ENCODING 115
SWIDTH 556 0
DWIDTH 6 0
BBX 6 6 0 0
BITMAP
38
6C
30
18
D8
70
ENDCHAR
STARTCHAR t
ENCODING 116
SWIDTH 333 0
DWIDTH 4 0
BBX 5 8 0 0
BITMAP
30
30
F8
60
60
C0
C0
60
ENDCHAR
STARTCHAR u
ENCODING 117
SWIDTH 611 0
DWIDTH 6 0
BBX 6 6 0 0
BITMAP
6C
6C
CC
D8
D8
68
ENDCHAR
STARTCHAR v
ENCODING 118
SWIDTH 556 0
DWIDTH 6 0
BBX 5 6 1 0
BITMAP
D8
D8
D8
D0
E0
40
ENDCHAR
STARTCHAR w
ENCODING 119
SWIDTH 778 0
DWIDTH 8 0
BBX 7 6 1 0
BITMAP
D6
D6
D6
D4
F8
48
ENDCHAR
STARTCHAR x
ENCODING 120
SWIDTH 556 0
DWIDTH 5 0
BBX 7 6 -1 0
BITMAP
66
3C
18
38
6C
CC
ENDCHAR
STARTCHAR y
ENCODING 121
SWIDTH 556 0
DWIDTH 6 0
BBX 6 8 0 -2
BITMAP
6C
6C
6C
38
30
30
60
C0
ENDCHAR
STARTCHAR z
ENCODING 122
SWIDTH 500 0
DWIDTH 5 0
BBX 6 6 0 0
BITMAP
7C
0C
38
60
C0
F8
ENDCHAR
STARTCHAR braceleft
ENCODING 123
SWIDTH 389 0
DWIDTH 5 0
BBX 6 10 0 -2
BITMAP
0C
18
30
30
C0
60
60
60
60
30
ENDCHAR
STARTCHAR bar
ENCODING 124
SWIDTH 280 0
DWIDTH 4 0
BBX 4 10 0 -2
BITMAP
10
10
20
20
20
40
40
40
80
80
ENDCHAR
STARTCHAR braceright
ENCODING 125
SWIDTH 389 0
DWIDTH 5 0
BBX 6 10 -1 -2
BITMAP
30
18
18
18
0C
30
30
30
60
C0
ENDCHAR
STARTCHAR asciitilde
ENCODING 126
SWIDTH 584 0
DWIDTH 6 0
BBX 5 2 1 3
BITMAP
68
B0
ENDCHAR
STARTCHAR space
ENCODING 160
SWIDTH 278 0
DWIDTH 3 0
BBX 0 0 0 0
BITMAP
ENDCHAR
STARTCHAR exclamdown
ENCODING 161
SWIDTH 333 0
DWIDTH 4 0
BBX 4 8 0 -2
BITMAP
30
00
20
20
60
60
C0
C0
ENDCHAR
STARTCHAR cent
ENCODING 162
SWIDTH 556 0
DWIDTH 7 0
BBX 6 8 1 -1
BITMAP
04
38
6C
D0
A0
D8
70
80
ENDCHAR
STARTCHAR sterling
ENCODING 163
SWIDTH 556 0
DWIDTH 7 0
BBX 6 7 0 0
BITMAP
38
6C
60
F0
40
EC
D8
ENDCHAR
STARTCHAR currency
ENCODING 164
SWIDTH 556 0
DWIDTH 6 0
BBX 6 6 0 1
BITMAP
44
38
68
58
70
88
ENDCHAR
STARTCHAR yen
ENCODING 165
SWIDTH 556 0
DWIDTH 7 0
BBX 7 8 0 0
BITMAP
62
66
6C
28
7C
30
F8
20
ENDCHAR
STARTCHAR brokenbar
ENCODING 166
SWIDTH 280 0
DWIDTH 4 0
BBX 3 9 1 -1
BITMAP
20
20
40
40
00
40
40
80
80
ENDCHAR
STARTCHAR section
ENCODING 167
SWIDTH 556 0
DWIDTH 7 0
BBX 7 10 0 -2
BITMAP
1C
36
30
78
4C
64
3C
18
D8
70
ENDCHAR
STARTCHAR dieresis
ENCODING 168
SWIDTH 333 0
DWIDTH 4 0
BBX 3 1 2 7
BITMAP
A0
ENDCHAR
STARTCHAR copyright
ENCODING 169
SWIDTH 737 0
DWIDTH 10 0
BBX 8 8 1 0
BITMAP
3C
42
99
A5
A1
9D
42
3C
ENDCHAR
STARTCHAR ordfeminine
ENCODING 170
SWIDTH 370 0
DWIDTH 5 0
BBX 5 6 0 2
BITMAP
38
18
70
50
00
F0
ENDCHAR
STARTCHAR guillemotleft
ENCODING 171
SWIDTH 556 0
DWIDTH 8 0
BBX 6 3 1 2
BITMAP
6C
D8
6C
ENDCHAR
STARTCHAR logicalnot
ENCODING 172
SWIDTH 584 0
DWIDTH 7 0
BBX 5 3 1 2
BITMAP
F8
08
08
ENDCHAR
STARTCHAR hyphen
ENCODING 173
SWIDTH 333 0
DWIDTH 5 0
BBX 4 1 1 3
BITMAP
F0
ENDCHAR
STARTCHAR registered
ENCODING 174
SWIDTH 737 0
DWIDTH 10 0
BBX 8 8 1 0
BITMAP
3C
42
BD
A5
B9
A5
42
3C
ENDCHAR
STARTCHAR macron
ENCODING 175
SWIDTH 333 0
DWIDTH 4 0
BBX 3 1 2 7
BITMAP
E0
ENDCHAR
STARTCHAR degree
ENCODING 176
SWIDTH 400 0
DWIDTH 4 0
BBX 3 3 1 4
BITMAP
60
A0
C0
ENDCHAR
STARTCHAR plusminus
ENCODING 177
SWIDTH 584 0
DWIDTH 6 0
BBX 6 7 0 0
BITMAP
18
18
7C
30
30
00
F8
ENDCHAR
STARTCHAR twosuperior
ENCODING 178
SWIDTH 333 0
DWIDTH 3 0
BBX 3 4 0 3
BITMAP
60
20
40
E0
ENDCHAR
STARTCHAR threesuperior
ENCODING 179
SWIDTH 333 0
DWIDTH 3 0
BBX 3 4 0 3
BITMAP
E0
40
20
C0
ENDCHAR
STARTCHAR acute
ENCODING 180
SWIDTH 333 0
DWIDTH 3 0
BBX 2 2 2 7
BITMAP
40
80
ENDCHAR
STARTCHAR mu
ENCODING 181
SWIDTH 611 0
DWIDTH 6 0
BBX 7 8 -1 -2
BITMAP
36
36
26
6C
6C
74
C0
C0
ENDCHAR
STARTCHAR paragraph
ENCODING 182
SWIDTH 556 0
DWIDTH 7 0
BBX 7 10 1 -2
BITMAP
3E
74
E8
E8
68
50
50
A0
A0
A0
ENDCHAR
STARTCHAR periodcentered
ENCODING 183
SWIDTH 278 0
DWIDTH 3 0
BBX 1 2 1 2
BITMAP
80
80
ENDCHAR
STARTCHAR cedilla
ENCODING 184
SWIDTH 333 0
DWIDTH 3 0
BBX 3 3 -1 -2
BITMAP
40
20
C0
ENDCHAR
STARTCHAR onesuperior
ENCODING 185
SWIDTH 333 0
DWIDTH 3 0
BBX 2 4 1 3
BITMAP
C0
40
80
80
ENDCHAR
STARTCHAR ordmasculine
ENCODING 186
SWIDTH 365 0
DWIDTH 5 0
BBX 5 6 0 2
BITMAP
38
68
58
70
00
F0
ENDCHAR
STARTCHAR guillemotright
ENCODING 187
SWIDTH 556 0
DWIDTH 8 0
BBX 6 3 1 2
BITMAP
D8
6C
D8
ENDCHAR
STARTCHAR onequarter
ENCODING 188
SWIDTH 834 0
DWIDTH 9 0
BBX 8 8 0 0
BITMAP
61
22
44
48
12
26
4F
84
ENDCHAR
STARTCHAR onehalf
ENCODING 189
SWIDTH 834 0
DWIDTH 9 0
BBX 8 8 0 0
BITMAP
61
22
44
48
16
22
44
8E
ENDCHAR
STARTCHAR threequarters
ENCODING 190
SWIDTH 834 0
DWIDTH 9 0
BBX 8 8 0 0
BITMAP
71
22
14
68
12
26
4F
84
ENDCHAR
STARTCHAR questiondown
ENCODING 191
SWIDTH 611 0
DWIDTH 6 0
BBX 6 8 0 -2
BITMAP
0C
00
18
18
70
C0
D8
70
ENDCHAR
STARTCHAR Agrave
ENCODING 192
SWIDTH 722 0
DWIDTH 8 0
BBX 7 11 0 0
BITMAP
08
04
00
0C
0C
1C
36
36
7E
C6
C6
ENDCHAR
STARTCHAR Aacute
ENCODING 193
SWIDTH 722 0
DWIDTH 8 0
BBX 7 11 0 0
BITMAP
02
04
00
0C
0C
1C
36
36
7E
C6
C6
ENDCHAR
STARTCHAR Acircumflex
ENCODING 194
SWIDTH 722 0
DWIDTH 8 0
BBX 7 11 0 0
BITMAP
04
0A
00
0C
0C
1C
36
36
7E
C6
C6
ENDCHAR
STARTCHAR Atilde
ENCODING 195
SWIDTH 722 0
DWIDTH 8 0
BBX 8 11 0 0
BITMAP
0D
16
00
0C
0C
1C
36
36
7E
C6
C6
ENDCHAR
STARTCHAR Adieresis
ENCODING 196
SWIDTH 722 0
DWIDTH 8 0
BBX 7 10 0 0
BITMAP
0A
00
0C
0C
1C
36
36
7E
C6
C6
ENDCHAR
STARTCHAR Aring
ENCODING 197
SWIDTH 722 0
DWIDTH 8 0
BBX 7 11 0 0
BITMAP
04
0A
04
0C
0C
1C
36
36
7E
C6
C6
ENDCHAR
STARTCHAR AE
ENCODING 198
SWIDTH 1000 0
DWIDTH 10 0
BBX 11 8 0 0
BITMAP
0FE0
1B00
3600
37C0
6600
7C00
CC00
CF80
ENDCHAR
STARTCHAR Ccedilla
ENCODING 199
SWIDTH 722 0
DWIDTH 7 0
BBX 7 10 0 -2
BITMAP
1C
36
66
60
C0
C4
CC
78
20
C0
ENDCHAR
STARTCHAR Egrave
ENCODING 200
SWIDTH 667 0
DWIDTH 6 0
BBX 7 11 0 0
BITMAP
10
08
00
3E
20
60
7C
40
C0
C0
F8
ENDCHAR
STARTCHAR Eacute
ENCODING 201
SWIDTH 667 0
DWIDTH 6 0
BBX 7 11 0 0
BITMAP
04
08
00
3E
20
60
7C
40
C0
C0
F8
ENDCHAR
STARTCHAR Ecircumflex
ENCODING 202
SWIDTH 667 0
DWIDTH 6 0
BBX 7 11 0 0
BITMAP
08
14
00
3E
20
60
7C
40
C0
C0
F8
ENDCHAR
STARTCHAR Edieresis
ENCODING 203
SWIDTH 667 0
DWIDTH 6 0
BBX 7 10 0 0
BITMAP
14
00
3E
20
60
7C
40
C0
C0
F8
ENDCHAR
STARTCHAR Igrave
ENCODING 204
SWIDTH 278 0
DWIDTH 3 0
BBX 4 11 0 0
BITMAP
20
10
00
30
30
60
60
60
C0
C0
C0
ENDCHAR
STARTCHAR Iacute
ENCODING 205
SWIDTH 278 0
DWIDTH 3 0
BBX 5 11 0 0
BITMAP
08
10
00
30
30
60
60
60
C0
C0
C0
ENDCHAR
STARTCHAR Icircumflex
ENCODING 206
SWIDTH 278 0
DWIDTH 3 0
BBX 5 11 0 0
BITMAP
10
28
00
30
30
60
60
60
C0
C0
C0
ENDCHAR
STARTCHAR Idieresis
ENCODING 207
SWIDTH 278 0
DWIDTH 3 0
BBX 5 10 0 0
BITMAP
28
00
30
30
60
60
60
C0
C0
C0
ENDCHAR
STARTCHAR Eth
ENCODING 208
SWIDTH 722 0
DWIDTH 8 0
BBX 8 8 0 0
BITMAP
3E
33
63
F3
66
C6
CC
F8
ENDCHAR
STARTCHAR Ntilde
ENCODING 209
SWIDTH 722 0
DWIDTH 8 0
BBX 9 11 0 0
BITMAP
0D00
1600
0000
3180
3180
7300
7B00
6B00
CE00
C600
C600
ENDCHAR
STARTCHAR Ograve
ENCODING 210
SWIDTH 778 0
DWIDTH 8 0
BBX 8 11 0 0
BITMAP
08
04
00
1E
33
63
63
C3
C6
CC
78
ENDCHAR
STARTCHAR Oacute
ENCODING 211
SWIDTH 778 0
DWIDTH 8 0
BBX 8 11 0 0
BITMAP
02
04
00
1E
33
63
63
C3
C6
CC
78
ENDCHAR
STARTCHAR Ocircumflex
ENCODING 212
SWIDTH 778 0
DWIDTH 8 0
BBX 8 11 0 0
BITMAP
04
0A
00
1E
33
63
63
C3
C6
CC
78
ENDCHAR
STARTCHAR Otilde
ENCODING 213
SWIDTH 778 0
DWIDTH 8 0
BBX 8 11 0 0
BITMAP
0D
16
00
1E
33
63
63
C3
C6
CC
78
ENDCHAR
STARTCHAR Odieresis
ENCODING 214
SWIDTH 778 0
DWIDTH 8 0
BBX 8 10 0 0
BITMAP
0A
00
1E
33
63
63
C3
C6
CC
78
ENDCHAR
STARTCHAR multiply
ENCODING 215
SWIDTH 584 0
DWIDTH 6 0
BBX 6 5 0 1
BITMAP
6C
38
30
70
D8
ENDCHAR
STARTCHAR Oslash
ENCODING 216
SWIDTH 778 0
DWIDTH 8 0
BBX 10 8 -1 0
BITMAP
0F40
1980
3380
3580
6B00
7300
6600
BC00
ENDCHAR
STARTCHAR Ugrave
ENCODING 217
SWIDTH 722 0
DWIDTH 7 0
BBX 8 11 0 0
BITMAP
08
04
00
33
33
66
66
66
CC
CC
78
ENDCHAR
STARTCHAR Uacute
ENCODING 218
SWIDTH 722 0
DWIDTH 7 0
BBX 8 11 0 0
BITMAP
02
04
00
33
33
66
66
66
CC
CC
78
ENDCHAR
STARTCHAR Ucircumflex
ENCODING 219
SWIDTH 722 0
DWIDTH 7 0
BBX 8 11 0 0
BITMAP
04
0A
00
33
33
66
66
66
CC
CC
78
ENDCHAR
STARTCHAR Udieresis
ENCODING 220
SWIDTH 722 0
DWIDTH 7 0
BBX 8 10 0 0
BITMAP
0A
00
33
33
66
66
66
CC
CC
78
ENDCHAR
STARTCHAR Yacute
ENCODING 221
SWIDTH 667 0
DWIDTH 7 0
BBX 7 11 1 0
BITMAP
08
10
00
C6
C6
6C
78
30
30
60
60
ENDCHAR
STARTCHAR Thorn
ENCODING 222
SWIDTH 667 0
DWIDTH 7 0
BBX 8 8 0 0
BITMAP
30
3E
33
63
66
7C
C0
C0
ENDCHAR
STARTCHAR germandbls
ENCODING 223
SWIDTH 611 0
DWIDTH 7 0
BBX 7 8 0 0
BITMAP
1C
36
26
6C
66
46
CC
D8
ENDCHAR
STARTCHAR agrave
ENCODING 224
SWIDTH 556 0
DWIDTH 6 0
BBX 6 9 0 0
BITMAP
20
10
00
38
4C
3C
D8
D8
6C
ENDCHAR
STARTCHAR aacute
ENCODING 225
SWIDTH 556 0
DWIDTH 6 0
BBX 6 9 0 0
BITMAP
08
10
00
38
4C
3C
D8
D8
6C
ENDCHAR
STARTCHAR acircumflex
ENCODING 226
SWIDTH 556 0
DWIDTH 6 0
BBX 6 9 0 0
BITMAP
10
28
00
38
4C
3C
D8
D8
6C
ENDCHAR
STARTCHAR atilde
ENCODING 227
SWIDTH 556 0
DWIDTH 6 0
BBX 6 9 0 0
BITMAP
34
58
00
38
4C
3C
D8
D8
6C
ENDCHAR
STARTCHAR adieresis
ENCODING 228
SWIDTH 556 0
DWIDTH 6 0
BBX 6 8 0 0
BITMAP
28
00
38
4C
3C
D8
D8
6C
ENDCHAR
STARTCHAR aring
ENCODING 229
SWIDTH 556 0
DWIDTH 6 0
BBX 6 9 0 0
BITMAP
10
28
10
38
4C
3C
D8
D8
6C
ENDCHAR
STARTCHAR ae
ENCODING 230
SWIDTH 889 0
DWIDTH 9 0
BBX 9 6 0 0
BITMAP
3F00
4D80
3F80
D800
DB00
6E00
ENDCHAR
STARTCHAR ccedilla
ENCODING 231
SWIDTH 556 0
DWIDTH 5 0
BBX 5 8 0 -2
BITMAP
38
68
C0
C0
D8
70
20
C0
ENDCHAR
STARTCHAR egrave
ENCODING 232
SWIDTH 556 0
DWIDTH 6 0
BBX 6 9 0 0
BITMAP
20
10
00
38
6C
7C
C0
D8
70
ENDCHAR
STARTCHAR eacute
ENCODING 233
SWIDTH 556 0
DWIDTH 6 0
BBX 6 9 0 0
BITMAP
08
10
00
38
6C
7C
C0
D8
70
ENDCHAR
STARTCHAR ecircumflex
ENCODING 234
SWIDTH 556 0
DWIDTH 6 0
BBX 6 9 0 0
BITMAP
10
28
00
38
6C
7C
C0
D8
70
ENDCHAR
STARTCHAR edieresis
ENCODING 235
SWIDTH 556 0
DWIDTH 6 0
BBX 6 8 0 0
BITMAP
28
00
38
6C
7C
C0
D8
70
ENDCHAR
STARTCHAR igrave
ENCODING 236
SWIDTH 278 0
DWIDTH 3 0
BBX 3 9 0 0
BITMAP
40
20
00
60
60
60
C0
C0
C0
ENDCHAR
STARTCHAR iacute
ENCODING 237
SWIDTH 278 0
DWIDTH 3 0
BBX 3 9 0 0
BITMAP
20
40
00
60
60
60
C0
C0
C0
ENDCHAR
STARTCHAR icircumflex
ENCODING 238
SWIDTH 278 0
DWIDTH 3 0
BBX 4 9 0 0
BITMAP
20
50
00
60
60
60
C0
C0
C0
ENDCHAR
STARTCHAR idieresis
ENCODING 239
SWIDTH 278 0
DWIDTH 3 0
BBX 4 8 0 0
BITMAP
50
00
60
60
60
C0
C0
C0
ENDCHAR
STARTCHAR eth
ENCODING 240
SWIDTH 611 0
DWIDTH 6 0
BBX 6 9 0 0
BITMAP
6C
38
58
3C
6C
CC
CC
D8
70
ENDCHAR
STARTCHAR ntilde
ENCODING 241
SWIDTH 611 0
DWIDTH 6 0
BBX 6 9 0 0
BITMAP
34
58
00
78
6C
4C
D8
D8
D8
ENDCHAR
STARTCHAR ograve
ENCODING 242
SWIDTH 611 0
DWIDTH 6 0
BBX 6 9 0 0
BITMAP
20
10
00
38
6C
CC
CC
D8
70
ENDCHAR
STARTCHAR oacute
ENCODING 243
SWIDTH 611 0
DWIDTH 6 0
BBX 6 9 0 0
BITMAP
08
10
00
38
6C
CC
CC
D8
70
ENDCHAR
STARTCHAR ocircumflex
ENCODING 244
SWIDTH 611 0
DWIDTH 6 0
BBX 6 9 0 0
BITMAP
10
28
00
38
6C
CC
CC
D8
70
ENDCHAR
STARTCHAR otilde
ENCODING 245
SWIDTH 611 0
DWIDTH 6 0
BBX 6 9 0 0
BITMAP
34
58
00
38
6C
CC
CC
D8
70
ENDCHAR
STARTCHAR odieresis
ENCODING 246
SWIDTH 611 0
DWIDTH 6 0
BBX 6 8 0 0
BITMAP
28
00
38
6C
CC
CC
D8
70
ENDCHAR
STARTCHAR divide
ENCODING 247
SWIDTH 584 0
DWIDTH 6 0
BBX 5 5 1 1
BITMAP
30
00
F8
00
60
ENDCHAR
STARTCHAR oslash
ENCODING 248
SWIDTH 611 0
DWIDTH 8 0
BBX 10 6 -1 0
BITMAP
0EC0
1B80
3700
3B00
7600
DC00
ENDCHAR
STARTCHAR ugrave
ENCODING 249
SWIDTH 611 0
DWIDTH 6 0
BBX 6 9 0 0
BITMAP
20
10
00
6C
6C
CC
D8
D8
68
ENDCHAR
STARTCHAR uacute
ENCODING 250
SWIDTH 611 0
DWIDTH 6 0
BBX 6 9 0 0
BITMAP
08
10
00
6C
6C
CC
D8
D8
68
ENDCHAR
STARTCHAR ucircumflex
ENCODING 251
SWIDTH 611 0
DWIDTH 6 0
BBX 6 9 0 0
BITMAP
10
28
00
6C
6C
CC
D8
D8
68
ENDCHAR
STARTCHAR udieresis
ENCODING 252
SWIDTH 611 0
DWIDTH 6 0
BBX 6 8 0 0
BITMAP
28
00
6C
6C
CC
D8
D8
68
ENDCHAR
STARTCHAR yacute
ENCODING 253
SWIDTH 556 0
DWIDTH 6 0
BBX 6 11 0 -2
BITMAP
08
10
00
6C
6C
6C
38
30
30
60
C0
ENDCHAR
STARTCHAR thorn
ENCODING 254
SWIDTH 611 0
DWIDTH 6 0
BBX 7 10 -1 -2
BITMAP
18
18
3C
36
26
64
6C
78
C0
C0
ENDCHAR
STARTCHAR ydieresis
ENCODING 255
SWIDTH 556 0
DWIDTH 6 0
BBX 6 10 0 -2
BITMAP
28
00
6C
6C
6C
38
30
30
60
C0
ENDCHAR
STARTCHAR uni0400
ENCODING 1024
SWIDTH 667 0
DWIDTH 6 0
BBX 7 11 0 0
BITMAP
10
08
00
3E
20
60
7C
40
C0
C0
F8
ENDCHAR
STARTCHAR afii10023
ENCODING 1025
SWIDTH 667 0
DWIDTH 6 0
BBX 7 10 0 0
BITMAP
14
00
3E
20
60
7C
40
C0
C0
F8
ENDCHAR
STARTCHAR afii10053
ENCODING 1028
SWIDTH 672 0
DWIDTH 7 0
BBX 7 8 0 0
BITMAP
1C
36
60
78
C0
C0
CC
78
ENDCHAR
STARTCHAR afii10054
ENCODING 1029
SWIDTH 667 0
DWIDTH 7 0
BBX 8 8 0 0
BITMAP
1E
33
30
38
1C
CC
CC
78
ENDCHAR
STARTCHAR afii10055
ENCODING 1030
SWIDTH 278 0
DWIDTH 3 0
BBX 4 8 0 0
BITMAP
30
30
60
60
60
C0
C0
C0
ENDCHAR
STARTCHAR afii10056
ENCODING 1031
SWIDTH 278 0
DWIDTH 3 0
BBX 5 10 0 0
BITMAP
28
00
30
30
60
60
60
C0
C0
C0
ENDCHAR
STARTCHAR afii10057
ENCODING 1032
SWIDTH 556 0
DWIDTH 6 0
BBX 7 8 0 0
BITMAP
06
06
0C
0C
0C
D8
D8
70
ENDCHAR
STARTCHAR afii10062
ENCODING 1038
SWIDTH 768 0
DWIDTH 8 0
BBX 7 11 2 0
BITMAP
6C
38
00
C6
C6
CC
CC
78
70
60
C0
ENDCHAR
STARTCHAR afii10017
ENCODING 1040
SWIDTH 768 0
DWIDTH 8 0
BBX 7 8 0 0
BITMAP
0C
1C
36
36
66
7E
C6
C6
ENDCHAR
STARTCHAR afii10018
ENCODING 1041
SWIDTH 672 0
DWIDTH 7 0
BBX 8 8 0 0
BITMAP
3F
30
60
7C
66
C6
CC
F8
ENDCHAR
STARTCHAR afii10019
ENCODING 1042
SWIDTH 672 0
DWIDTH 7 0
BBX 7 8 0 0
BITMAP
3E
32
66
7C
66
C6
CC
F8
ENDCHAR
STARTCHAR afii10020
ENCODING 1043
SWIDTH 480 0
DWIDTH 5 0
BBX 7 8 0 0
BITMAP
3E
30
60
60
60
C0
C0
C0
ENDCHAR
STARTCHAR afii10021
ENCODING 1044
SWIDTH 768 0
DWIDTH 8 0
BBX 9 9 0 -1
BITMAP
1F80
1980
3300
3300
3300
6600
6600
FF00
C600
ENDCHAR
STARTCHAR afii10022
ENCODING 1045
SWIDTH 576 0
DWIDTH 6 0
BBX 7 8 0 0
BITMAP
3E
30
60
7C
60
C0
C0
F8
ENDCHAR
STARTCHAR afii10024
ENCODING 1046
SWIDTH 1056 0
DWIDTH 11 0
BBX 12 8 0 0
BITMAP
3330
3360
36C0
1F80
3F80
6CC0
CCC0
CCC0
ENDCHAR
STARTCHAR afii10025
ENCODING 1047
SWIDTH 672 0
DWIDTH 7 0
BBX 8 8 0 0
BITMAP
1E
33
06
1C
06
06
CC
78
ENDCHAR
STARTCHAR afii10026
ENCODING 1048
SWIDTH 768 0
DWIDTH 8 0
BBX 9 8 0 0
BITMAP
3180
3380
6700
6B00
6B00
D600
E600
C600
ENDCHAR
STARTCHAR afii10027
ENCODING 1049
SWIDTH 768 0
DWIDTH 8 0
BBX 9 11 0 0
BITMAP
1B00
0E00
0000
3180
3380
6700
6B00
6B00
D600
E600
C600
ENDCHAR
STARTCHAR afii10028
ENCODING 1050
SWIDTH 768 0
DWIDTH 8 0
BBX 8 8 0 0
BITMAP
33
36
6C
78
78
CC
C6
C6
ENDCHAR
STARTCHAR afii10029
ENCODING 1051
SWIDTH 768 0
DWIDTH 8 0
BBX 9 8 0 0
BITMAP
1F80
1980
1B00
3300
3300
6600
6600
C600
ENDCHAR
STARTCHAR afii10030
ENCODING 1052
SWIDTH 960 0
DWIDTH 10 0
BBX 11 8 0 0
BITMAP
3060
30E0
79C0
6BC0
6EC0
CD80
CD80
C980
ENDCHAR
STARTCHAR afii10031
ENCODING 1053
SWIDTH 672 0
DWIDTH 7 0
BBX 8 8 0 0
BITMAP
33
33
66
7E
66
CC
CC
CC
ENDCHAR
STARTCHAR afii10032
ENCODING 1054
SWIDTH 768 0
DWIDTH 8 0
BBX 8 8 0 0
BITMAP
1E
33
63
63
C6
C6
CC
78
ENDCHAR
STARTCHAR afii10033
ENCODING 1055
SWIDTH 672 0
DWIDTH 7 0
BBX 8 8 0 0
BITMAP
3F
33
66
66
66
CC
CC
CC
ENDCHAR
STARTCHAR afii10034
ENCODING 1056
SWIDTH 672 0
DWIDTH 7 0
BBX 8 8 0 0
BITMAP
3E
33
63
66
7C
C0
C0
C0
ENDCHAR
STARTCHAR afii10035
ENCODING 1057
SWIDTH 672 0
DWIDTH 7 0
BBX 7 8 0 0
BITMAP
1C
36
66
60
C0
C4
CC
78
ENDCHAR
STARTCHAR afii10036
ENCODING 1058
SWIDTH 576 0
DWIDTH 6 0
BBX 6 8 1 0
BITMAP
FC
30
60
60
60
C0
C0
C0
ENDCHAR
STARTCHAR afii10037
ENCODING 1059
SWIDTH 768 0
DWIDTH 8 0
BBX 7 8 2 0
BITMAP
C6
C6
CC
CC
78
70
60
C0
ENDCHAR
STARTCHAR afii10038
ENCODING 1060
SWIDTH 1056 0
DWIDTH 11 0
BBX 10 8 1 0
BITMAP
0600
3F80
66C0
CCC0
CCC0
D980
7F00
1800
ENDCHAR
STARTCHAR afii10039
ENCODING 1061
SWIDTH 672 0
DWIDTH 7 0
BBX 8 8 0 0
BITMAP
63
66
2C
38
38
6C
CC
CC
ENDCHAR
STARTCHAR afii10040
ENCODING 1062
SWIDTH 672 0
DWIDTH 7 0
BBX 8 9 0 -1
BITMAP
33
33
66
66
66
CC
CC
FE
0C
ENDCHAR
STARTCHAR afii10041
ENCODING 1063
SWIDTH 672 0
DWIDTH 7 0
BBX 7 8 1 0
BITMAP
66
66
CC
CC
7C
18
18
18
ENDCHAR
STARTCHAR afii10042
ENCODING 1064
SWIDTH 1056 0
DWIDTH 11 0
BBX 12 8 0 0
BITMAP
3330
3330
6660
6660
6660
CCC0
CCC0
FFC0
ENDCHAR
STARTCHAR afii10043
ENCODING 1065
SWIDTH 1056 0
DWIDTH 11 0
BBX 12 9 0 -1
BITMAP
3330
3330
6660
6660
6660
CCC0
CCC0
FFE0
00C0
ENDCHAR
STARTCHAR afii10044
ENCODING 1066
SWIDTH 768 0
DWIDTH 8 0
BBX 7 8 1 0
BITMAP
F0
30
60
7C
66
C6
CC
F8
ENDCHAR
STARTCHAR afii10045
ENCODING 1067
SWIDTH 960 0
DWIDTH 10 0
BBX 11 8 0 0
BITMAP
3060
3060
60C0
7CC0
66C0
C780
CD80
F980
ENDCHAR
STARTCHAR afii10046
ENCODING 1068
SWIDTH 672 0
DWIDTH 7 0
BBX 7 8 0 0
BITMAP
30
30
60
7C
66
C6
CC
F8
ENDCHAR
STARTCHAR afii10047
ENCODING 1069
SWIDTH 768 0
DWIDTH 8 0
BBX 8 8 0 0
BITMAP
1E
33
03
1F
06
06
CC
78
ENDCHAR
STARTCHAR afii10048
ENCODING 1070
SWIDTH 960 0
DWIDTH 10 0
BBX 10 8 0 0
BITMAP
3380
36C0
6CC0
7CC0
6980
D980
DB00
CE00
ENDCHAR
STARTCHAR afii10049
ENCODING 1071
SWIDTH 768 0
DWIDTH 8 0
BBX 9 8 0 0
BITMAP
0F80
1980
3300
3300
1F00
3600
6600
C600
ENDCHAR
STARTCHAR afii10065
ENCODING 1072
SWIDTH 576 0
DWIDTH 6 0
BBX 6 6 0 0
BITMAP
38
4C
3C
D8
D8
6C
ENDCHAR
STARTCHAR afii10066
ENCODING 1073
SWIDTH 576 0
DWIDTH 6 0
BBX 7 9 0 0
BITMAP
06
1C
30
78
6C
CC
CC
D8
70
ENDCHAR
STARTCHAR afii10067
ENCODING 1074
SWIDTH 576 0
DWIDTH 6 0
BBX 6 6 0 0
BITMAP
78
6C
70
D8
D8
F0
ENDCHAR
STARTCHAR afii10068
ENCODING 1075
SWIDTH 384 0
DWIDTH 4 0
BBX 5 6 0 0
BITMAP
78
60
60
C0
C0
C0
ENDCHAR
STARTCHAR afii10069
ENCODING 1076
SWIDTH 672 0
DWIDTH 7 0
BBX 7 7 0 -1
BITMAP
3E
36
36
6C
6C
FE
CC
ENDCHAR
STARTCHAR afii10070
ENCODING 1077
SWIDTH 576 0
DWIDTH 6 0
BBX 6 6 0 0
BITMAP
38
6C
7C
C0
D8
70
ENDCHAR
STARTCHAR afii10072
ENCODING 1078
SWIDTH 864 0
DWIDTH 9 0
BBX 9 6 0 0
BITMAP
6D80
6D00
3E00
7E00
DB00
DB00
ENDCHAR
STARTCHAR afii10073
ENCODING 1079
SWIDTH 576 0
DWIDTH 6 0
BBX 6 6 0 0
BITMAP
38
4C
30
18
D8
70
ENDCHAR
STARTCHAR afii10074
ENCODING 1080
SWIDTH 672 0
DWIDTH 7 0
BBX 7 6 0 0
BITMAP
66
66
6E
DC
EC
CC
ENDCHAR
STARTCHAR afii10075
ENCODING 1081
SWIDTH 672 0
DWIDTH 7 0
BBX 7 9 0 0
BITMAP
14
08
00
66
66
6E
DC
EC
CC
ENDCHAR
STARTCHAR afii10076
ENCODING 1082
SWIDTH 576 0
DWIDTH 6 0
BBX 6 6 0 0
BITMAP
6C
78
70
D8
D8
CC
ENDCHAR
STARTCHAR afii10077
ENCODING 1083
SWIDTH 672 0
DWIDTH 7 0
BBX 7 6 0 0
BITMAP
3E
36
36
6C
6C
CC
ENDCHAR
STARTCHAR afii10078
ENCODING 1084
SWIDTH 864 0
DWIDTH 9 0
BBX 9 6 0 0
BITMAP
6180
7380
7780
DF00
DB00
D300
ENDCHAR
STARTCHAR afii10079
ENCODING 1085
SWIDTH 576 0
DWIDTH 6 0
BBX 6 6 0 0
BITMAP
6C
6C
7C
D8
D8
D8
ENDCHAR
STARTCHAR afii10080
ENCODING 1086
SWIDTH 576 0
DWIDTH 6 0
BBX 6 6 0 0
BITMAP
38
6C
CC
CC
D8
70
ENDCHAR
STARTCHAR afii10081
ENCODING 1087
SWIDTH 576 0
DWIDTH 6 0
BBX 6 6 0 0
BITMAP
7C
6C
6C
D8
D8
D8
ENDCHAR
STARTCHAR afii10082
ENCODING 1088
SWIDTH 576 0
DWIDTH 6 0
BBX 7 8 -1 -2
BITMAP
3C
36
26
64
6C
78
C0
C0
ENDCHAR
STARTCHAR afii10083
ENCODING 1089
SWIDTH 480 0
DWIDTH 5 0
BBX 5 6 0 0
BITMAP
38
68
C0
C0
D8
70
ENDCHAR
STARTCHAR afii10084
ENCODING 1090
SWIDTH 576 0
DWIDTH 6 0
BBX 6 6 1 0
BITMAP
FC
30
30
60
60
60
ENDCHAR
STARTCHAR afii10085
ENCODING 1091
SWIDTH 576 0
DWIDTH 6 0
BBX 6 8 0 -2
BITMAP
6C
6C
6C
38
30
30
60
C0
ENDCHAR
STARTCHAR afii10086
ENCODING 1092
SWIDTH 864 0
DWIDTH 9 0
BBX 9 10 0 -2
BITMAP
0600
0600
3F00
6D80
CD80
D980
DB00
7E00
3000
3000
ENDCHAR
STARTCHAR afii10087
ENCODING 1093
SWIDTH 480 0
DWIDTH 5 0
BBX 7 6 -1 0
BITMAP
66
3C
18
38
6C
CC
ENDCHAR
STARTCHAR afii10088
ENCODING 1094
SWIDTH 576 0
DWIDTH 6 0
BBX 6 7 0 -1
BITMAP
6C
6C
6C
D8
D8
FC
18
ENDCHAR
STARTCHAR afii10089
ENCODING 1095
SWIDTH 576 0
DWIDTH 6 0
BBX 5 6 1 0
BITMAP
D8
D8
D8
70
30
30
ENDCHAR
STARTCHAR afii10090
ENCODING 1096
SWIDTH 864 0
DWIDTH 9 0
BBX 9 6 0 0
BITMAP
6D80
6D80
6D80
DB00
DB00
FF00
ENDCHAR
STARTCHAR afii10091
ENCODING 1097
SWIDTH 864 0
DWIDTH 9 0
BBX 9 7 0 -1
BITMAP
6D80
6D80
6D80
DB00
DB00
FF80
0300
ENDCHAR
STARTCHAR afii10092
ENCODING 1098
SWIDTH 672 0
DWIDTH 7 0
BBX 5 6 1 0
BITMAP
E0
60
70
D8
D8
F0
ENDCHAR
STARTCHAR afii10093
ENCODING 1099
SWIDTH 864 0
DWIDTH 9 0
BBX 9 6 0 0
BITMAP
6180
6180
7180
DB00
DB00
F300
ENDCHAR
STARTCHAR afii10094
ENCODING 1100
SWIDTH 576 0
DWIDTH 6 0
BBX 5 6 0 0
BITMAP
60
60
70
D8
D8
F0
ENDCHAR
STARTCHAR afii10095
ENCODING 1101
SWIDTH 480 0
DWIDTH 5 0
BBX 5 6 0 0
BITMAP
70
18
78
18
B0
E0
ENDCHAR
STARTCHAR afii10096
ENCODING 1102
SWIDTH 864 0
DWIDTH 9 0
BBX 9 6 0 0
BITMAP
6700
6D80
7980
D980
DB00
CE00
ENDCHAR
STARTCHAR afii10097
ENCODING 1103
SWIDTH 576 0
DWIDTH 6 0
BBX 6 6 0 0
BITMAP
3C
6C
6C
38
58
D8
ENDCHAR
STARTCHAR uni0450
ENCODING 1104
SWIDTH 556 0
DWIDTH 6 0
BBX 6 9 0 0
BITMAP
20
10
00
38
6C
7C
C0
D8
70
ENDCHAR
STARTCHAR afii10071
ENCODING 1105
SWIDTH 556 0
DWIDTH 6 0
BBX 6 8 0 0
BITMAP
28
00
38
6C
7C
C0
D8
70
ENDCHAR
STARTCHAR afii10101
ENCODING 1108
SWIDTH 480 0
DWIDTH 5 0
BBX 5 6 0 0
BITMAP
38
60
F0
C0
D8
70
ENDCHAR
STARTCHAR afii10102
ENCODING 1109
SWIDTH 556 0
DWIDTH 6 0
BBX 6 6 0 0
BITMAP
38
6C
30
18
D8
70
ENDCHAR
STARTCHAR afii10103
ENCODING 1110
SWIDTH 278 0
DWIDTH 3 0
BBX 4 8 0 0
BITMAP
30
00
60
60
60
C0
C0
C0
ENDCHAR
STARTCHAR afii10104
ENCODING 1111
SWIDTH 278 0
DWIDTH 3 0
BBX 4 8 0 0
BITMAP
50
00
60
60
60
C0
C0
C0
ENDCHAR
STARTCHAR afii10105
ENCODING 1112
SWIDTH 278 0
DWIDTH 3 0
BBX 5 10 -1 -2
BITMAP
18
00
30
30
30
60
60
60
60
C0
ENDCHAR
STARTCHAR afii10110
ENCODING 1118
SWIDTH 576 0
DWIDTH 6 0
BBX 6 11 0 -2
BITMAP
28
10
00
6C
6C
6C
38
30
30
60
C0
ENDCHAR
STARTCHAR afii10050
ENCODING 1168
SWIDTH 480 0
DWIDTH 5 0
BBX 8 9 0 0
BITMAP
03
3E
30
60
60
60
C0
C0
C0
ENDCHAR
STARTCHAR afii10098
ENCODING 1169
SWIDTH 384 0
DWIDTH 4 0
BBX 6 7 0 0
BITMAP
0C
78
60
60
C0
C0
C0
ENDCHAR
STARTCHAR uni04AA
ENCODING 1194
SWIDTH 722 0
DWIDTH 7 0
BBX 7 10 0 -2
BITMAP
1C
36
66
60
C0
C4
CC
78
20
C0
ENDCHAR
STARTCHAR uni04AB
ENCODING 1195
SWIDTH 556 0
DWIDTH 5 0
BBX 5 8 0 -2
BITMAP
38
68
C0
C0
D8
70
20
C0
ENDCHAR
STARTCHAR uni04AE
ENCODING 1198
SWIDTH 667 0
DWIDTH 7 0
BBX 8 8 1 0
BITMAP
C3
C6
6C
78
30
30
60
60
ENDCHAR
STARTCHAR uni04C0
ENCODING 1216
SWIDTH 278 0
DWIDTH 3 0
BBX 4 8 0 0
BITMAP
30
30
60
60
60
C0
C0
C0
ENDCHAR
STARTCHAR uni04D2
ENCODING 1234
SWIDTH 722 0
DWIDTH 8 0
BBX 7 10 0 0
BITMAP
0A
00
0C
0C
1C
36
36
7E
C6
C6
ENDCHAR
STARTCHAR uni04D3
ENCODING 1235
SWIDTH 556 0
DWIDTH 6 0
BBX 6 8 0 0
BITMAP
28
00
38
4C
3C
D8
D8
6C
ENDCHAR
STARTCHAR uni04D4
ENCODING 1236
SWIDTH 1000 0
DWIDTH 10 0
BBX 11 8 0 0
BITMAP
0FE0
1B00
3600
37C0
6600
7C00
CC00
CF80
ENDCHAR
STARTCHAR uni04D5
ENCODING 1237
SWIDTH 889 0
DWIDTH 9 0
BBX 9 6 0 0
BITMAP
3F00
4D80
3F80
D800
DB00
6E00
ENDCHAR
STARTCHAR uni04E6
ENCODING 1254
SWIDTH 778 0
DWIDTH 8 0
BBX 8 10 0 0
BITMAP
0A
00
1E
33
63
63
C3
C6
CC
78
ENDCHAR
STARTCHAR uni04E7
ENCODING 1255
SWIDTH 611 0
DWIDTH 6 0
BBX 6 8 0 0
BITMAP
28
00
38
6C
CC
CC
D8
70
ENDCHAR
ENDFONT
